<svg xmlns="http://www.w3.org/2000/svg" viewBox="20 157.638 565.8590024414062 259.72423461996743"> <g transform="rotate(0 149.86211730998372 287.5001173099837)"><svg xmlns="http://www.w3.org/2000/svg" viewBox="0.0022854499984532595 0.005069118924438953 257.2135009765625 257.2066955566406" height="119.72423461996742" width="119.72423461996742" y="227.638" x="90" preserveAspectRatio="xMinYMin" style="overflow: visible;"><path d="M255.734,224.315,235.7,204.277l16.458-26.594a5.049,5.049,0,0,0-.723-6.227l-42.848-42.847,42.848-42.848a5.046,5.046,0,0,0,1.317-4.836L232.771,3.785a5.048,5.048,0,0,0-8.457-2.3L204.276,21.519,177.681,5.061a5.049,5.049,0,0,0-6.227.724L128.607,48.632,85.76,5.785a5.044,5.044,0,0,0-4.837-1.318L3.783,24.444a5.048,5.048,0,0,0-2.3,8.458L21.517,52.94,5.059,79.534a5.048,5.048,0,0,0,.724,6.227L48.63,128.609,5.783,171.456a5.046,5.046,0,0,0-1.317,4.836l19.976,77.14a5.049,5.049,0,0,0,8.458,2.3L52.938,235.7l26.6,16.458a5.046,5.046,0,0,0,6.227-.724l42.847-42.847,42.847,42.847a5.043,5.043,0,0,0,4.837,1.318l77.14-19.977a5.049,5.049,0,0,0,2.3-8.458ZM241.462,175.77l-13.1,21.171-44.054-44.055,17.137-17.136ZM235.2,53.436l7.051,27.226-40.806,40.8L184.306,104.33Zm-9.989-38.57,6.048,23.351L213.1,26.978ZM205.761,34.314l21.174,13.1L177.165,97.19,160.026,80.05Zm-94.293,94.3,17.139-17.14,17.139,17.14-17.139,17.139Zm10,24.279L104.33,170.026l-17.139-17.14,17.137-17.137Zm14.28-48.559,17.138-17.138,17.139,17.14-17.137,17.137Zm40.021-88.576,21.171,13.1L152.886,72.91,135.748,55.773ZM128.252,63.27l.356-.357L145.744,80.05,128.607,97.189l-.179-.179-7.14,7.14.179.179-17.14,17.139-.178-.178-7.141,7.139.18.18L80.05,145.746,62.912,128.608l.177-.178h0L128.25,63.269Zm-47.591-48.3,40.806,40.806L104.329,72.91,53.435,22.017ZM97.189,80.05,80.049,97.19,34.313,51.455l13.1-21.175ZM14.864,32.006l23.351-6.047L26.977,44.118Zm.888,49.442,13.1-21.172L72.909,104.33,55.772,121.467ZM22.016,203.78l-7.051-27.225,40.807-40.806,17.137,17.137Zm9.989,38.571L25.958,219l18.159,11.238ZM51.454,222.9,30.279,209.8l49.77-49.771,17.14,17.139Zm29.992,18.562-21.171-13.1,44.054-44.056,17.138,17.138Zm30.023-64.3,17.138-17.138h0l7.14-7.14h0l17.14-17.139h0l7.14-7.14h0l17.137-17.138L194.3,128.609l-17.137,17.137-.177-.177-7.141,7.14.177.177-17.138,17.139-.178-.178-7.14,7.141.177.177L128.607,194.3Zm65.084,65.085-40.805-40.807,17.138-17.138L203.779,235.2Zm-16.527-65.085,17.139-17.139L222.9,205.761,209.8,226.937ZM219,231.257,230.238,213.1l12.111,12.113Z" style="fill: #000000; fill-opacity: 1;"></path></svg></g> <g transform="rotate(0 374.7640012207031 289.7009998474121)"><svg xmlns="http://www.w3.org/2000/svg" x="233.669" y="269.541" viewBox="0.7799999713897705 12.600000381469727 282.19000244140625 40.31999969482422" height="40.31999969482422" width="282.19000244140625" style="overflow: visible;"><g fill="#000000" fill-opacity="1" style=""><path d="M6.83 52.36L1.96 52.36Q1.51 52.36 1.15 52.02Q0.78 51.69 0.78 51.18L0.78 51.18Q0.78 50.96 0.90 50.68L0.90 50.68L14.39 14.56Q14.56 14 15.04 13.58Q15.51 13.16 16.35 13.16L16.35 13.16L22.46 13.16Q23.30 13.16 23.74 13.58Q24.19 14 24.42 14.56L24.42 14.56L37.91 50.68Q37.97 50.96 37.97 51.18L37.97 51.18Q37.97 51.69 37.63 52.02Q37.30 52.36 36.85 52.36L36.85 52.36L31.98 52.36Q31.19 52.36 30.83 52.00Q30.46 51.63 30.35 51.30L30.35 51.30L27.72 44.46L11.09 44.46L8.46 51.30Q8.34 51.63 7.98 52.00Q7.62 52.36 6.83 52.36L6.83 52.36ZM19.38 20.72L13.05 38.02L25.76 38.02L19.38 20.72ZM53.31 52.92L53.31 52.92Q49.90 52.92 47.40 51.38Q44.91 49.84 43.57 47.01Q42.22 44.18 42.22 40.32L42.22 40.32L42.22 24.58Q42.22 24.02 42.62 23.63Q43.01 23.24 43.57 23.24L43.57 23.24L48.50 23.24Q49.11 23.24 49.48 23.63Q49.84 24.02 49.84 24.58L49.84 24.58L49.84 39.98Q49.84 46.93 55.94 46.93L55.94 46.93Q58.86 46.93 60.56 45.08Q62.27 43.23 62.27 39.98L62.27 39.98L62.27 24.58Q62.27 24.02 62.66 23.63Q63.06 23.24 63.62 23.24L63.62 23.24L68.54 23.24Q69.10 23.24 69.50 23.63Q69.89 24.02 69.89 24.58L69.89 24.58L69.89 51.02Q69.89 51.58 69.50 51.97Q69.10 52.36 68.54 52.36L68.54 52.36L64.01 52.36Q63.39 52.36 63.03 51.97Q62.66 51.58 62.66 51.02L62.66 51.02L62.66 48.72Q61.15 50.68 58.91 51.80Q56.67 52.92 53.31 52.92ZM94.98 52.36L90.44 52.36Q87.08 52.36 84.78 51.18Q82.49 50.01 81.37 47.68Q80.25 45.36 80.25 41.89L80.25 41.89L80.25 29.18L75.82 29.18Q75.26 29.18 74.87 28.78Q74.48 28.39 74.48 27.78L74.48 27.78L74.48 24.58Q74.48 24.02 74.87 23.63Q75.26 23.24 75.82 23.24L75.82 23.24L80.25 23.24L80.25 13.94Q80.25 13.38 80.61 12.99Q80.98 12.60 81.59 12.60L81.59 12.60L86.13 12.60Q86.69 12.60 87.08 12.99Q87.47 13.38 87.47 13.94L87.47 13.94L87.47 23.24L94.47 23.24Q95.03 23.24 95.42 23.63Q95.82 24.02 95.82 24.58L95.82 24.58L95.82 27.78Q95.82 28.39 95.42 28.78Q95.03 29.18 94.47 29.18L94.47 29.18L87.47 29.18L87.47 41.33Q87.47 43.62 88.28 44.91Q89.10 46.20 91.11 46.20L91.11 46.20L94.98 46.20Q95.54 46.20 95.93 46.59Q96.32 46.98 96.32 47.54L96.32 47.54L96.32 51.02Q96.32 51.58 95.93 51.97Q95.54 52.36 94.98 52.36L94.98 52.36ZM114.18 52.92L114.18 52.92Q109.70 52.92 106.65 51.35Q103.60 49.78 102.00 46.93Q100.41 44.07 100.18 40.26L100.18 40.26Q100.13 39.26 100.13 37.80Q100.13 36.34 100.18 35.34L100.18 35.34Q100.41 31.47 102.06 28.64Q103.71 25.82 106.76 24.25Q109.82 22.68 114.18 22.68L114.18 22.68Q118.55 22.68 121.60 24.25Q124.66 25.82 126.31 28.64Q127.96 31.47 128.18 35.34L128.18 35.34Q128.24 36.34 128.24 37.80Q128.24 39.26 128.18 40.26L128.18 40.26Q127.96 44.07 126.36 46.93Q124.77 49.78 121.72 51.35Q118.66 52.92 114.18 52.92ZM114.18 47.38L114.18 47.38Q117.15 47.38 118.78 45.50Q120.40 43.62 120.57 39.98L120.57 39.98Q120.62 39.14 120.62 37.80Q120.62 36.46 120.57 35.62L120.57 35.62Q120.40 31.98 118.78 30.10Q117.15 28.22 114.18 28.22L114.18 28.22Q111.22 28.22 109.59 30.10Q107.97 31.98 107.80 35.62L107.80 35.62Q107.74 36.46 107.74 37.80Q107.74 39.14 107.80 39.98L107.80 39.98Q107.97 43.62 109.59 45.50Q111.22 47.38 114.18 47.38ZM150.25 52.92L150.25 52.92Q145.04 52.92 141.43 51.10Q137.82 49.28 135.91 45.89Q134.01 42.50 133.78 37.74L133.78 37.74Q133.73 35.45 133.73 32.82Q133.73 30.18 133.78 27.78L133.78 27.78Q134.01 23.07 135.94 19.66Q137.87 16.24 141.48 14.42Q145.10 12.60 150.25 12.60L150.25 12.60Q154.06 12.60 157.08 13.61Q160.10 14.62 162.23 16.38Q164.36 18.14 165.54 20.50Q166.71 22.85 166.77 25.59L166.77 25.59Q166.82 26.10 166.46 26.43Q166.10 26.77 165.59 26.77L165.59 26.77L160.27 26.77Q159.66 26.77 159.26 26.46Q158.87 26.15 158.70 25.42L158.70 25.42Q157.81 21.73 155.62 20.38Q153.44 19.04 150.19 19.04L150.19 19.04Q146.44 19.04 144.20 21.14Q141.96 23.24 141.79 28.06L141.79 28.06Q141.62 32.65 141.79 37.46L141.79 37.46Q141.96 42.28 144.20 44.38Q146.44 46.48 150.19 46.48L150.19 46.48Q153.44 46.48 155.65 45.11Q157.86 43.74 158.70 40.10L158.70 40.10Q158.87 39.31 159.26 39.03Q159.66 38.75 160.27 38.75L160.27 38.75L165.59 38.75Q166.10 38.75 166.46 39.09Q166.82 39.42 166.77 39.93L166.77 39.93Q166.71 42.67 165.54 45.02Q164.36 47.38 162.23 49.14Q160.10 50.90 157.08 51.91Q154.06 52.92 150.25 52.92ZM179.87 52.36L174.78 52.36Q174.22 52.36 173.82 51.97Q173.43 51.58 173.43 51.02L173.43 51.02L173.43 14.56Q173.43 13.94 173.82 13.55Q174.22 13.16 174.78 13.16L174.78 13.16L189.28 13.16Q196.06 13.16 199.98 16.30Q203.90 19.43 203.90 25.42L203.90 25.42Q203.90 29.57 201.85 32.31Q199.81 35.06 196.39 36.29L196.39 36.29L204.57 50.57Q204.74 50.90 204.74 51.18L204.74 51.18Q204.74 51.69 204.37 52.02Q204.01 52.36 203.56 52.36L203.56 52.36L198.46 52.36Q197.51 52.36 197.01 51.86Q196.50 51.35 196.22 50.85L196.22 50.85L189 37.58L181.22 37.58L181.22 51.02Q181.22 51.58 180.85 51.97Q180.49 52.36 179.87 52.36L179.87 52.36ZM181.22 19.38L181.22 31.25L189.11 31.25Q192.53 31.25 194.21 29.71Q195.89 28.17 195.89 25.37L195.89 25.37Q195.89 22.57 194.24 20.97Q192.58 19.38 189.11 19.38L189.11 19.38L181.22 19.38ZM226.74 52.92L226.74 52.92Q221.87 52.92 218.29 51.27Q214.70 49.62 212.74 46.17Q210.78 42.73 210.78 37.35L210.78 37.35L210.78 14.56Q210.78 13.94 211.18 13.55Q211.57 13.16 212.13 13.16L212.13 13.16L217.22 13.16Q217.84 13.16 218.20 13.55Q218.57 13.94 218.57 14.56L218.57 14.56L218.57 37.35Q218.57 41.94 220.75 44.16Q222.94 46.37 226.74 46.37L226.74 46.37Q230.55 46.37 232.71 44.16Q234.86 41.94 234.86 37.35L234.86 37.35L234.86 14.56Q234.86 13.94 235.26 13.55Q235.65 13.16 236.26 13.16L236.26 13.16L241.30 13.16Q241.92 13.16 242.28 13.55Q242.65 13.94 242.65 14.56L242.65 14.56L242.65 37.35Q242.65 42.73 240.72 46.17Q238.78 49.62 235.23 51.27Q231.67 52.92 226.74 52.92ZM266.34 52.36L252.39 52.36Q251.83 52.36 251.44 51.97Q251.05 51.58 251.05 51.02L251.05 51.02L251.05 14.56Q251.05 13.94 251.44 13.55Q251.83 13.16 252.39 13.16L252.39 13.16L266.06 13.16Q271.71 13.16 275.38 14.90Q279.05 16.63 280.92 20.05Q282.80 23.46 282.86 28.39L282.86 28.39Q282.97 30.86 282.97 32.76Q282.97 34.66 282.86 37.07L282.86 37.07Q282.74 42.28 280.95 45.67Q279.16 49.06 275.55 50.71Q271.94 52.36 266.34 52.36L266.34 52.36ZM258.83 19.60L258.83 45.92L266.06 45.92Q269.19 45.92 271.15 45.02Q273.11 44.13 274.04 42.14Q274.96 40.15 275.02 36.90L275.02 36.90Q275.07 35.22 275.10 33.96Q275.13 32.70 275.10 31.44Q275.07 30.18 275.02 28.56L275.02 28.56Q274.90 23.97 272.72 21.78Q270.54 19.60 265.78 19.60L265.78 19.60L258.83 19.60Z" transform="translate(0, 0)"></path></g></svg></g></svg>